<svg xmlns="http://www.w3.org/2000/svg" viewBox="0 0 749.79 76.31"><defs><style>.cls-1{fill:#de6e4b;stroke:#de6e4b;stroke-miterlimit:10;}</style></defs><g id="Layer_2" data-name="Layer 2"><g id="Layer_1-2" data-name="Layer 1"><path class="cls-1" d="M15.48,61.7H6.55a.77.77,0,0,1-.4-.11.89.89,0,0,1-.29-.29.76.76,0,0,1-.1-.39V11.3H17.64a1.74,1.74,0,0,1,.72.14,1.79,1.79,0,0,1,.54.47A3.51,3.51,0,0,1,19.36,13q1.16,2.73,2.24,5.39c.72,1.78,1.42,3.56,2.12,5.33s1.38,3.57,2.05,5.37,1.36,3.63,2.05,5.51,1.41,3.84,2.13,5.9l-3.17-3.31H32l-3.24,3.31c.72-2.06,1.43-4.06,2.13-6s1.39-3.8,2.09-5.65,1.39-3.72,2.08-5.61,1.42-3.83,2.16-5.8,1.55-4,2.42-6.12H52.05a.77.77,0,0,1,.4.11.89.89,0,0,1,.29.29.76.76,0,0,1,.1.39V61.7H43.92a.77.77,0,0,1-.4-.11.81.81,0,0,1-.29-.29.77.77,0,0,1-.11-.39V51.84c0-1.4,0-2.76,0-4.11s.05-2.69.07-4,.09-2.74.18-4.18.22-3,.36-4.53.31-3.28.51-5.08.4-3.71.64-5.72l1.37,2.16H41.18l3-2.09c-.72,1.78-1.45,3.61-2.19,5.51s-1.5,3.79-2.27,5.69-1.53,3.79-2.27,5.68-1.49,3.77-2.23,5.62S33.72,50.39,33,52.12h-7a1.24,1.24,0,0,1-.47-.1.78.78,0,0,1-.39-.47q-.94-2.31-2-4.93t-2.13-5.44q-1.08-2.8-2.23-5.69c-.77-1.92-1.52-3.81-2.27-5.69L14.4,24.26l2.88,2.09h-5l1.29-2.16q.44,3,.76,5.61c.21,1.78.38,3.45.5,5s.23,3.07.33,4.53.16,2.88.21,4.25.09,2.73.11,4.07,0,2.73,0,4.18V61.7Z" transform="translate(-5.26 -3.89)"/><path class="cls-1" d="M66.67,60.91V31.68h-5.4a.74.74,0,0,1-.79-.8V23H75.6a.74.74,0,0,1,.43.11,1.48,1.48,0,0,1,.25.25.75.75,0,0,1,.11.44V61.7H67.46a.74.74,0,0,1-.79-.79ZM65.23,4.39H77a.79.79,0,0,1,.58.21.81.81,0,0,1,.21.58v9.29H66a.74.74,0,0,1-.79-.79Z" transform="translate(-5.26 -3.89)"/><path class="cls-1" d="M105.76,22.1a30.53,30.53,0,0,1,4.68.32,17.28,17.28,0,0,1,3.28.8,4.93,4.93,0,0,1,1.69.9.3.3,0,0,1,.18.25,2.34,2.34,0,0,1,0,.39V33h-1.37a20.35,20.35,0,0,0-4-1.29,22.37,22.37,0,0,0-4.54-.43,9.71,9.71,0,0,0-4.25.9,6.19,6.19,0,0,0-2.88,2.84,11,11,0,0,0-1,5v4.53a12.55,12.55,0,0,0,.58,4,6.25,6.25,0,0,0,1.8,2.77,5.94,5.94,0,0,0,2.45,1.48,10.75,10.75,0,0,0,3.31.47,25.13,25.13,0,0,0,3.1-.18,21.32,21.32,0,0,0,2.8-.54,16.92,16.92,0,0,0,2.67-.94h1.37V60a1.35,1.35,0,0,1,0,.29.58.58,0,0,1-.18.29,5,5,0,0,1-1.62.83,18.15,18.15,0,0,1-3.31.79,30.1,30.1,0,0,1-4.72.32,23.75,23.75,0,0,1-7.7-1.15A15.39,15.39,0,0,1,92.3,58a14.5,14.5,0,0,1-3.6-5.51,20.54,20.54,0,0,1-1.23-7.34V40a18.32,18.32,0,0,1,2.31-9.33,16.35,16.35,0,0,1,6.41-6.26A19.35,19.35,0,0,1,105.76,22.1Z" transform="translate(-5.26 -3.89)"/><path class="cls-1" d="M125.56,61.7a.77.77,0,0,1-.39-.11.89.89,0,0,1-.29-.25.74.74,0,0,1-.11-.43V7.7h8.93a.74.74,0,0,1,.43.11,1,1,0,0,1,.25.25.74.74,0,0,1,.11.43V61.7h-8.93Zm7.78-24V29.23h2.52a23.38,23.38,0,0,1,2.34-2.92A14.57,14.57,0,0,1,140.93,24,13.4,13.4,0,0,1,144,22.6a11.87,11.87,0,0,1,3.49-.5,11.39,11.39,0,0,1,4.21.75A8.43,8.43,0,0,1,155,25.09a9.79,9.79,0,0,1,2,3.56,14.86,14.86,0,0,1,.68,4.68V61.7h-8.92a.77.77,0,0,1-.4-.11.89.89,0,0,1-.29-.25.74.74,0,0,1-.11-.43V35.35a4.1,4.1,0,0,0-.86-2.88,3.55,3.55,0,0,0-2.74-.94,10.33,10.33,0,0,0-2.7.4,15.22,15.22,0,0,0-3,1.15A14.88,14.88,0,0,0,135.86,35,15.76,15.76,0,0,0,133.34,37.72Z" transform="translate(-5.26 -3.89)"/><path class="cls-1" d="M176.18,50.76A2.88,2.88,0,0,0,177,53a3.65,3.65,0,0,0,2.55.76,17.41,17.41,0,0,0,3.82-.43,14.66,14.66,0,0,0,3.71-1.44,22.7,22.7,0,0,0,3.7-2.59v6.19h-2.16a10.74,10.74,0,0,1-2.62,3.7,11.73,11.73,0,0,1-3.93,2.38,14,14,0,0,1-4.89.83,11.88,11.88,0,0,1-5.73-1.3,9,9,0,0,1-3.71-3.63,11.08,11.08,0,0,1-1.29-5.44V49.53a10.81,10.81,0,0,1,.79-4.25A9.41,9.41,0,0,1,169.52,42a10.28,10.28,0,0,1,3.56-2.12,13.75,13.75,0,0,1,4.68-.76h13.68c.43,0,.76.39,1,1.16a11.45,11.45,0,0,1,.4,2.55c.05.94.07,1.72.07,2.34H179.56a4.25,4.25,0,0,0-1.47.22,2.7,2.7,0,0,0-1.05.65,4.31,4.31,0,0,0-.61,1,2.73,2.73,0,0,0-.25,1.19Zm23-13.61V51a3.81,3.81,0,0,0,.11,1,1.49,1.49,0,0,0,.39.72,1.42,1.42,0,0,0,.61.33,3.59,3.59,0,0,0,.9.1h2.16v7.71a.74.74,0,0,1-.79.79h-4.25a9.51,9.51,0,0,1-3.6-.65,8.57,8.57,0,0,1-2.8-1.84,7.93,7.93,0,0,1-1.88-2.84,10.22,10.22,0,0,1-.64-3.74v-16a6.29,6.29,0,0,0-.72-3.27,4,4,0,0,0-2.34-1.69,15,15,0,0,0-4.36-.51,33.46,33.46,0,0,0-3.92.22c-1.28.14-2.52.33-3.75.57a28.11,28.11,0,0,0-3.71,1h-1.36v-7.7a1,1,0,0,1,.07-.43.84.84,0,0,1,.14-.22,6.91,6.91,0,0,1,2.41-1,35.33,35.33,0,0,1,4.72-1,38.17,38.17,0,0,1,5.4-.4,31.91,31.91,0,0,1,7.78.83,12.85,12.85,0,0,1,5.32,2.63,10.66,10.66,0,0,1,3.1,4.64A20.53,20.53,0,0,1,199.22,37.15Z" transform="translate(-5.26 -3.89)"/><path class="cls-1" d="M227.44,22.1a17.22,17.22,0,0,1,8.53,2,14.27,14.27,0,0,1,5.66,5.61,17,17,0,0,1,2,8.43v6a1,1,0,0,1-.07.4.44.44,0,0,1-.25.25,1,1,0,0,1-.4.07H218.44l-.21-6.05h16v-1a12.78,12.78,0,0,0-.43-3.57,5.11,5.11,0,0,0-1.37-2.34,4.37,4.37,0,0,0-2-1.22,10.53,10.53,0,0,0-2.95-.36q-3.6,0-5.36,1.76t-1.77,5.73v8.78a9.28,9.28,0,0,0,.47,3.06,5.66,5.66,0,0,0,4.39,3.92,17.24,17.24,0,0,0,4.43.51,39.29,39.29,0,0,0,4.61-.25A27.89,27.89,0,0,0,238,53.1c1.16-.32,2.28-.66,3.39-1.05h1.37V59.4a.6.6,0,0,1-.08.28,1.12,1.12,0,0,1-.21.29,6.47,6.47,0,0,1-2.56,1.15,37.6,37.6,0,0,1-4.75,1,36.4,36.4,0,0,1-5.65.43,27.83,27.83,0,0,1-8.25-1.11,15.85,15.85,0,0,1-5.9-3.21,13.23,13.23,0,0,1-3.53-5.07,18.14,18.14,0,0,1-1.19-6.73V38.23a17.68,17.68,0,0,1,1.19-6.63,14.21,14.21,0,0,1,3.42-5.07,15.38,15.38,0,0,1,5.33-3.28A19.64,19.64,0,0,1,227.44,22.1Z" transform="translate(-5.26 -3.89)"/><path class="cls-1" d="M254.94,17V7.7h8.93a.71.71,0,0,1,.43.11,1.23,1.23,0,0,1,.26.25.74.74,0,0,1,.1.43v41.4a5,5,0,0,0,.11,1.15,1.7,1.7,0,0,0,.47.8,2,2,0,0,0,.86.5,4.73,4.73,0,0,0,1.3.14h3.74v8.43a.74.74,0,0,1-.79.79h-5.61a12.07,12.07,0,0,1-4.25-.68,7.89,7.89,0,0,1-4.93-5.4,17,17,0,0,1-.62-4.86V17Z" transform="translate(-5.26 -3.89)"/><path class="cls-1" d="M301,11.3h9.58a.75.75,0,0,1,.79.79V61.7h-9.58a.77.77,0,0,1-.39-.11.81.81,0,0,1-.29-.29.77.77,0,0,1-.11-.39V11.3Zm4.47,20.81h21.67l2.52-.65,2,9.43H306.21a.74.74,0,0,1-.36-.07.94.94,0,0,1-.25-.18.47.47,0,0,1-.15-.25,1.43,1.43,0,0,1,0-.29ZM337.24,61.7h-9.58a.77.77,0,0,1-.39-.11.81.81,0,0,1-.29-.29.77.77,0,0,1-.11-.39V11.3h9.58a.65.65,0,0,1,.29.07,1,1,0,0,1,.43.43.82.82,0,0,1,.07.29V61.7Z" transform="translate(-5.26 -3.89)"/><path class="cls-1" d="M364.09,22.1a19.89,19.89,0,0,1,7.1,1.22,16.41,16.41,0,0,1,5.5,3.42A15.27,15.27,0,0,1,380.26,32a17.27,17.27,0,0,1,1.26,6.7v7.27a16.67,16.67,0,0,1-2.2,8.64,15.44,15.44,0,0,1-6.12,5.87,18.91,18.91,0,0,1-9.11,2.12A19.65,19.65,0,0,1,357,61.34a16.55,16.55,0,0,1-5.51-3.42,15.29,15.29,0,0,1-3.56-5.22,17.27,17.27,0,0,1-1.26-6.7V38.73a16.72,16.72,0,0,1,2.2-8.64A15.46,15.46,0,0,1,355,24.22,19,19,0,0,1,364.09,22.1Zm.08,8.86a8.36,8.36,0,0,0-4.18,1,6.51,6.51,0,0,0-2.66,2.81,9.55,9.55,0,0,0-.94,4.42V45.5a10,10,0,0,0,.58,3.56,8.4,8.4,0,0,0,1.58,2.7,6,6,0,0,0,2.34,1.44,9.13,9.13,0,0,0,3.13.51,8.67,8.67,0,0,0,4.21-1,6.26,6.26,0,0,0,2.67-2.85,10,10,0,0,0,.9-4.39V39.16a12.26,12.26,0,0,0-.51-3.78,6.23,6.23,0,0,0-1.51-2.55,5.21,5.21,0,0,0-2.34-1.44A11.08,11.08,0,0,0,364.17,31Z" transform="translate(-5.26 -3.89)"/><path class="cls-1" d="M391.74,17V7.7h8.93a.74.74,0,0,1,.43.11,1,1,0,0,1,.25.25.67.67,0,0,1,.11.43v41.4a5,5,0,0,0,.11,1.15,1.7,1.7,0,0,0,.47.8,2,2,0,0,0,.86.5,4.73,4.73,0,0,0,1.3.14h3.74v8.43a.74.74,0,0,1-.79.79h-5.62a12,12,0,0,1-4.24-.68,8,8,0,0,1-3.06-2,8.24,8.24,0,0,1-1.88-3.38,17.42,17.42,0,0,1-.61-4.86V17Z" transform="translate(-5.26 -3.89)"/><path class="cls-1" d="M416.94,17V7.7h8.93a.71.71,0,0,1,.43.11,1,1,0,0,1,.25.25.67.67,0,0,1,.11.43v41.4a5,5,0,0,0,.11,1.15,1.7,1.7,0,0,0,.47.8,2,2,0,0,0,.86.5,4.73,4.73,0,0,0,1.3.14h3.74v8.43a.74.74,0,0,1-.79.79h-5.62a12,12,0,0,1-4.24-.68,8.07,8.07,0,0,1-3.06-2,8.24,8.24,0,0,1-1.88-3.38,17.42,17.42,0,0,1-.61-4.86V17Z" transform="translate(-5.26 -3.89)"/><path class="cls-1" d="M442.5,60.91V31.68h-5.4a.82.82,0,0,1-.58-.22.79.79,0,0,1-.21-.58V23h15.12a.74.74,0,0,1,.43.11,1.18,1.18,0,0,1,.25.25.75.75,0,0,1,.11.44V61.7h-8.93a.75.75,0,0,1-.79-.79ZM441.06,4.39H452.8a.74.74,0,0,1,.79.79v9.29H441.85a.75.75,0,0,1-.79-.79Z" transform="translate(-5.26 -3.89)"/><path class="cls-1" d="M474.32,61.7H465.4a1.19,1.19,0,0,1-.36,0,.55.55,0,0,1-.26-.14.52.52,0,0,1-.14-.25,1.79,1.79,0,0,1,0-.36V23h8.93a.71.71,0,0,1,.43.11,1.54,1.54,0,0,1,.26.25.75.75,0,0,1,.1.44V61.7Zm23.19,0h-8.93a.8.8,0,0,1-.4-.11.85.85,0,0,1-.28-.25.67.67,0,0,1-.11-.43V35.35a4.1,4.1,0,0,0-.87-2.88,3.51,3.51,0,0,0-2.73-.94,11.42,11.42,0,0,0-2.7.36A12.68,12.68,0,0,0,478.54,33a16.38,16.38,0,0,0-2.85,2,15.76,15.76,0,0,0-2.52,2.73V29.23h2.52a19.68,19.68,0,0,1,3.21-3.75A14,14,0,0,1,482.78,23a11.62,11.62,0,0,1,4.58-.9,11.42,11.42,0,0,1,4.21.75,8.58,8.58,0,0,1,3.24,2.24,9.63,9.63,0,0,1,2,3.56,14.85,14.85,0,0,1,.69,4.68V61.7Z" transform="translate(-5.26 -3.89)"/><path class="cls-1" d="M509.53,56.16a7.35,7.35,0,0,1,.58-3,6,6,0,0,1,1.83-2.34,9.45,9.45,0,0,1,3.21-1.59v-2.3l4.53,1.73c-.14.72-.25,1.45-.32,2.19s-.11,1.53-.11,2.34a1.55,1.55,0,0,0,.36,1.19,1.8,1.8,0,0,0,1.22.32h9.29a15,15,0,0,1,7,1.45,9.32,9.32,0,0,1,4.06,4A12.48,12.48,0,0,1,542.51,66v2.66a12.78,12.78,0,0,1-.76,4.47,9,9,0,0,1-2.34,3.49,10.8,10.8,0,0,1-3.92,2.27,17.46,17.46,0,0,1-5.51.79H515.29a17.19,17.19,0,0,1-6.23-1,7.29,7.29,0,0,1-5-7.38v-1.3a7.83,7.83,0,0,1,.9-3.81,7.51,7.51,0,0,1,2.55-2.74,10,10,0,0,1,3.89-1.44V59.32l5.33,3.24a4,4,0,0,0-1.83,1,4.44,4.44,0,0,0-.94,1.48,5.13,5.13,0,0,0-.33,1.91v2.23a4.55,4.55,0,0,0,.4,2,2.39,2.39,0,0,0,1.26,1.16,6.32,6.32,0,0,0,2.3.35H529a5.46,5.46,0,0,0,1.8-.25,3,3,0,0,0,1.15-.68,2.81,2.81,0,0,0,.72-1.33,7.09,7.09,0,0,0,.22-1.84V66.67a4,4,0,0,0-.86-2.88,4.22,4.22,0,0,0-3-.87H516a5.91,5.91,0,0,1-3.13-.9,6.91,6.91,0,0,1-2.41-2.48A6.49,6.49,0,0,1,509.53,56.16Zm17.21-26.07,6.77-.5v1.94a7.55,7.55,0,0,1,3.67,2.38,6.36,6.36,0,0,1,1.15,4V39a8.48,8.48,0,0,1-1.76,5.4,11.43,11.43,0,0,1-5.33,3.49,27,27,0,0,1-8.89,1.26,24.34,24.34,0,0,1-9-1.48,11.63,11.63,0,0,1-5.58-4.28,11.76,11.76,0,0,1-1.87-6.7V35.06a12.05,12.05,0,0,1,1.87-6.8,12,12,0,0,1,5.58-4.4,23.49,23.49,0,0,1,9-1.54h19.58v7.34a.8.8,0,0,1-.22.54.7.7,0,0,1-.57.25H522.35a9.31,9.31,0,0,0-5.26,1.23,4.27,4.27,0,0,0-1.8,3.81v1.23a4.32,4.32,0,0,0,.33,1.8,5.22,5.22,0,0,0,.89,1.36,5.4,5.4,0,0,0,2.31,1.3,12.33,12.33,0,0,0,3.53.43q3.45,0,5-1.26A4.63,4.63,0,0,0,529,36.5V35a7,7,0,0,0-.22-1.84,5.23,5.23,0,0,0-.68-1.55A7.94,7.94,0,0,0,526.74,30.09Z" transform="translate(-5.26 -3.89)"/><path class="cls-1" d="M569.43,23h8.93a1,1,0,0,1,.4.08.68.68,0,0,1,.29.21,1.46,1.46,0,0,1,.18.51l2,8.56q.9,3.9,1.65,7.38t1.3,6.95q.54,3.47.9,7.27h1.73q.13-3.89.5-7.81t.94-7.85c.38-2.61.78-5.22,1.18-7.81L590.6,23H600a2.84,2.84,0,0,1,.47,0,.42.42,0,0,1,.29.25.88.88,0,0,1,0,.65c-.67,3-1.34,6.1-2,9.22s-1.36,6.27-2.06,9.46-1.38,6.4-2.05,9.62-1.34,6.38-2,9.5H581.17a1,1,0,0,1-.79-.36,5.25,5.25,0,0,1-.65-1.51c-.53-2.21-1-4-1.37-5.51s-.69-2.77-.93-3.93-.48-2.38-.72-3.7-.48-2.91-.72-4.75-.53-4.24-.87-7.17h-1.44q-.49,3.6-.83,6.12c-.21,1.68-.43,3.13-.64,4.36s-.44,2.36-.65,3.42-.46,2.16-.72,3.31-.6,2.51-1,4.07l-1.48,5.65H557.12a.92.92,0,0,1-.79-.4,5.25,5.25,0,0,1-.58-1.62Q555,56.52,554.31,53c-.48-2.37-1-4.8-1.54-7.27s-1.1-5-1.62-7.52-1.07-5.09-1.62-7.64-1.1-5.06-1.62-7.56h9.21a1.24,1.24,0,0,1,.47.08.54.54,0,0,1,.29.25,2,2,0,0,1,.18.61q.65,3.81,1.26,7.56c.41,2.5.8,5,1.19,7.45s.7,5,1,7.45.44,5,.54,7.56h1.73c.24-2.49.54-5,.9-7.48s.8-5,1.33-7.56,1.08-5.14,1.65-7.78S568.81,25.75,569.43,23Z" transform="translate(-5.26 -3.89)"/><path class="cls-1" d="M624.73,22.1a19.83,19.83,0,0,1,7.09,1.22,16.45,16.45,0,0,1,5.51,3.42A15.24,15.24,0,0,1,640.89,32a17.27,17.27,0,0,1,1.26,6.7v7.27A16.76,16.76,0,0,1,640,54.57a15.58,15.58,0,0,1-6.12,5.87,18.91,18.91,0,0,1-9.11,2.12,19.61,19.61,0,0,1-7.09-1.22,16.45,16.45,0,0,1-5.51-3.42,15.15,15.15,0,0,1-3.56-5.22,17.27,17.27,0,0,1-1.26-6.7V38.73a16.81,16.81,0,0,1,2.19-8.64,15.55,15.55,0,0,1,6.16-5.87A19,19,0,0,1,624.73,22.1ZM624.8,31a8.35,8.35,0,0,0-4.17,1A6.48,6.48,0,0,0,618,34.74a9.68,9.68,0,0,0-.93,4.42V45.5a10.27,10.27,0,0,0,.57,3.56,8.42,8.42,0,0,0,1.59,2.7,6,6,0,0,0,2.34,1.44,9.09,9.09,0,0,0,3.13.51,8.7,8.7,0,0,0,4.21-1,6.23,6.23,0,0,0,2.66-2.85,10,10,0,0,0,.9-4.39V39.16a12.59,12.59,0,0,0-.5-3.78,6.34,6.34,0,0,0-1.51-2.55,5.32,5.32,0,0,0-2.34-1.44A11.15,11.15,0,0,0,624.8,31Z" transform="translate(-5.26 -3.89)"/><path class="cls-1" d="M662.17,61.7h-9.58a1.28,1.28,0,0,1-.36,0,.53.53,0,0,1-.39-.39,1.28,1.28,0,0,1,0-.36V23h9.58a.74.74,0,0,1,.43.11,1.48,1.48,0,0,1,.25.25.75.75,0,0,1,.11.44V61.7ZM660.8,30.52h2.74a15,15,0,0,1,2.34-4.68,8.89,8.89,0,0,1,3.38-2.7,11,11,0,0,1,4.57-.9,8.34,8.34,0,0,1,2.09.22,3.21,3.21,0,0,1,1.15.5,1.14,1.14,0,0,1,.36.4,1.26,1.26,0,0,1,.07.47v9h-1.36a9.92,9.92,0,0,0-2.06-.47,19.58,19.58,0,0,0-2.12-.11,10.36,10.36,0,0,0-4.46.94,10.64,10.64,0,0,0-3.67,2.88,20.11,20.11,0,0,0-3,5Z" transform="translate(-5.26 -3.89)"/><path class="cls-1" d="M683.12,23H711a.76.76,0,0,1,.8.8V32H683.91a.67.67,0,0,1-.29-.08.88.88,0,0,1-.25-.18.94.94,0,0,1-.18-.25.59.59,0,0,1-.07-.29V23Zm28.66,29.45v8.5a.85.85,0,0,1-.22.54.72.72,0,0,1-.58.25h-6a23,23,0,0,1-6.7-.9,13.14,13.14,0,0,1-5-2.77,11.82,11.82,0,0,1-3.17-4.83,20.27,20.27,0,0,1-1.08-7V11.3H698a.77.77,0,0,1,.4.11.89.89,0,0,1,.29.29.76.76,0,0,1,.1.39V45.36a11.85,11.85,0,0,0,.44,3.52,5.42,5.42,0,0,0,1.29,2.24,4.43,4.43,0,0,0,2,1,12.19,12.19,0,0,0,2.92.29h6.41Z" transform="translate(-5.26 -3.89)"/><path class="cls-1" d="M722.43,61.7a.77.77,0,0,1-.39-.11.89.89,0,0,1-.29-.25.74.74,0,0,1-.11-.43V7.7h8.93a.74.74,0,0,1,.43.11,1,1,0,0,1,.25.25.74.74,0,0,1,.11.43V61.7h-8.93Zm7.78-24V29.23h2.52a23.38,23.38,0,0,1,2.34-2.92A14.57,14.57,0,0,1,737.8,24a13.4,13.4,0,0,1,3.1-1.44,11.87,11.87,0,0,1,3.49-.5,11.39,11.39,0,0,1,4.21.75,8.43,8.43,0,0,1,3.24,2.24,9.79,9.79,0,0,1,2,3.56,14.86,14.86,0,0,1,.68,4.68V61.7h-8.92a.77.77,0,0,1-.4-.11.89.89,0,0,1-.29-.25.74.74,0,0,1-.11-.43V35.35a4.1,4.1,0,0,0-.86-2.88,3.55,3.55,0,0,0-2.74-.94,10.33,10.33,0,0,0-2.7.4,15.22,15.22,0,0,0-2.95,1.15A14.88,14.88,0,0,0,732.73,35,15.76,15.76,0,0,0,730.21,37.72Z" transform="translate(-5.26 -3.89)"/></g></g></svg>